<svg width="37" height="47" viewBox="0 0 37 47" fill="none" xmlns="http://www.w3.org/2000/svg">
<path d="M27.75 5.48333V9.4H34.6875C35.3008 9.4 35.889 9.64759 36.3227 10.0883C36.7564 10.529 37 11.1267 37 11.75C37 12.3733 36.7564 12.971 36.3227 13.4117C35.889 13.8524 35.3008 14.1 34.6875 14.1H2.3125C1.69919 14.1 1.11099 13.8524 0.677315 13.4117C0.243637 12.971 0 12.3733 0 11.75C0 11.1267 0.243637 10.529 0.677315 10.0883C1.11099 9.64759 1.69919 9.4 2.3125 9.4H9.25V5.48333C9.25 2.45653 11.6673 0 14.6458 0H22.3542C25.3327 0 27.75 2.45653 27.75 5.48333ZM7.696 20.915L9.731 41.595C9.75012 41.7884 9.83928 41.9676 9.98117 42.0979C10.123 42.2282 10.3075 42.3002 10.4988 42.3H26.5013C26.6925 42.3002 26.8769 42.2282 27.0188 42.0979C27.1607 41.9676 27.2499 41.7884 27.269 41.595L29.304 20.915C29.3805 20.308 29.6869 19.7552 30.1582 19.3743C30.6294 18.9933 31.2284 18.8142 31.8276 18.875C32.4268 18.9358 32.979 19.2318 33.3669 19.6999C33.7547 20.1681 33.9475 20.7715 33.9043 21.3819L31.8693 42.0619C31.7376 43.4154 31.1151 44.6707 30.1228 45.5834C29.1306 46.4962 27.8397 47.0012 26.5013 47H10.4988C9.16123 46.9998 7.87143 46.4948 6.87956 45.583C5.88768 44.6711 5.26442 43.4174 5.13067 42.065L3.09567 21.385C3.05705 21.0739 3.0801 20.758 3.16347 20.4561C3.24684 20.1541 3.38884 19.8722 3.58109 19.6269C3.77335 19.3816 4.01197 19.1779 4.28291 19.0277C4.55385 18.8776 4.85161 18.7841 5.15867 18.7527C5.46572 18.7213 5.77584 18.7527 6.07076 18.8451C6.36569 18.9374 6.63944 19.0888 6.8759 19.2903C7.11236 19.4918 7.30674 19.7393 7.44759 20.0184C7.58843 20.2974 7.6729 20.6023 7.696 20.915ZM13.875 5.48333V9.4H23.125V5.48333C23.125 5.27558 23.0438 5.07634 22.8992 4.92943C22.7547 4.78253 22.5586 4.7 22.3542 4.7H14.6458C14.4414 4.7 14.2453 4.78253 14.1008 4.92943C13.9562 5.07634 13.875 5.27558 13.875 5.48333Z" fill="#545454"/>
</svg>
