<svg width="44" height="38" viewBox="0 0 44 38" fill="none" xmlns="http://www.w3.org/2000/svg">
<path d="M37.7143 0.5H6.28571C4.6192 0.501785 3.02146 1.15206 1.84305 2.30815C0.664647 3.46423 0.00181977 5.03171 0 6.66667V31.3333C0.00181977 32.9683 0.664647 34.5358 1.84305 35.6919C3.02146 36.8479 4.6192 37.4982 6.28571 37.5H37.7143C39.3808 37.4982 40.9785 36.8479 42.1569 35.6919C43.3354 34.5358 43.9982 32.9683 44 31.3333V6.66667C43.9982 5.03171 43.3354 3.46423 42.1569 2.30815C40.9785 1.15206 39.3808 0.501785 37.7143 0.5ZM29.8571 6.66667C30.7895 6.66667 31.701 6.93792 32.4763 7.44612C33.2515 7.95432 33.8558 8.67665 34.2126 9.52176C34.5694 10.3669 34.6627 11.2968 34.4808 12.194C34.2989 13.0911 33.85 13.9152 33.1906 14.562C32.5313 15.2089 31.6913 15.6493 30.7769 15.8278C29.8624 16.0063 28.9145 15.9147 28.0531 15.5646C27.1916 15.2146 26.4554 14.6218 25.9374 13.8612C25.4193 13.1006 25.1429 12.2064 25.1429 11.2917C25.1442 10.0654 25.6413 8.88978 26.5251 8.02271C27.4089 7.15563 28.6072 6.66794 29.8571 6.66667ZM6.28571 34.4167C5.45218 34.4167 4.65278 34.0918 4.06338 33.5136C3.47398 32.9353 3.14286 32.1511 3.14286 31.3333V24.8169L12.4575 16.6942C13.3562 15.9123 14.525 15.4959 15.7257 15.5299C16.9264 15.5639 18.0688 16.0458 18.92 16.8773L25.299 23.122L13.7863 34.4167H6.28571ZM40.8571 31.3333C40.8571 32.1511 40.526 32.9353 39.9366 33.5136C39.3472 34.0918 38.5478 34.4167 37.7143 34.4167H18.2315L30.1567 22.7173C31.001 22.0129 32.0725 21.6249 33.1808 21.622C34.2891 21.6192 35.3626 22.0018 36.2106 22.7019L40.8571 26.5002V31.3333Z" fill="#CCCCCC"/>
</svg>
