<svg width="30" height="23" viewBox="0 0 30 23" fill="none" xmlns="http://www.w3.org/2000/svg">
<path d="M2.45279 0.0726344C1.58573 0.262156 0.761312 0.920743 0.349103 1.7499C0.0648202 2.32794 -0.0299405 2.76858 0.00796377 3.34188C0.0553441 4.16156 0.377531 4.88174 0.941357 5.44083C1.3204 5.81514 1.72787 6.06625 2.23958 6.23682C2.58072 6.35053 2.70865 6.36475 3.50937 6.3837C3.99739 6.39318 4.39539 6.41213 4.39539 6.42634C4.39539 6.44056 4.3101 6.63955 4.2106 6.86698C3.80313 7.77195 3.49042 8.84748 3.31985 9.94671C3.19666 10.7569 3.20614 12.3062 3.34354 13.1923C3.4999 14.2109 3.78418 15.2107 4.16796 16.0777C4.2722 16.3146 4.36696 16.5373 4.38117 16.5657C4.40012 16.6131 4.27694 16.6273 3.85525 16.6273C3.17297 16.6273 2.75129 16.7174 2.21589 16.9685C1.87949 17.1296 1.74209 17.2291 1.38673 17.5939C0.718669 18.2667 0.453339 18.9111 0.453339 19.8303C0.453339 20.7352 0.780264 21.5123 1.41042 22.1235C1.78473 22.4836 2.10691 22.6873 2.59493 22.8673L2.95029 23H14.9849H27.0195L27.3654 22.8721C27.8771 22.6873 28.204 22.4741 28.6115 22.0713C29.5781 21.1143 29.815 19.6502 29.199 18.4041C28.7915 17.5702 28.0003 16.9448 27.0858 16.7221C26.7731 16.6463 26.5268 16.6273 25.9203 16.6273C25.4181 16.6273 25.148 16.6084 25.148 16.58C25.148 16.5515 25.2001 16.4236 25.2712 16.2909C25.4654 15.9024 25.7924 14.988 25.944 14.4005C26.2283 13.3107 26.3325 12.4152 26.3088 11.297C26.2756 9.74771 25.9819 8.36894 25.3802 6.97122C25.2522 6.67272 25.148 6.42161 25.148 6.41687C25.148 6.41213 25.4512 6.39318 25.8255 6.3837C26.3988 6.36001 26.5599 6.33632 26.9011 6.22261C27.915 5.88621 28.7442 4.99072 29.0095 3.95309C29.0948 3.61669 29.109 2.86334 29.0332 2.53168C28.7584 1.31874 27.8629 0.394821 26.6736 0.0868485C26.3278 -0.0031742 26.0293 -0.0031742 14.5395 0.00156384C4.55648 0.00630188 2.71338 0.015778 2.45279 0.0726344ZM3.69416 0.901791C4.77443 1.13395 5.53252 2.07682 5.53252 3.195C5.53252 3.87254 5.30983 4.38899 4.8076 4.86279C4.32905 5.3129 3.84104 5.50716 3.17771 5.50243C2.16851 5.50243 1.27776 4.8391 0.979262 3.88202C0.846596 3.45559 0.851335 2.8586 0.984 2.45587C1.36304 1.32821 2.53808 0.655413 3.69416 0.901791ZM15.7714 0.897053C17.8514 1.10079 19.813 1.90152 21.4523 3.20922C23.4376 4.79646 24.8021 7.06598 25.2664 9.55345C25.3896 10.231 25.4323 10.7237 25.4323 11.5103C25.437 13.1354 25.1148 14.5663 24.4231 16.0209L24.1388 16.6273H21.0401C19.3392 16.6273 17.9462 16.6179 17.9462 16.6131C17.9462 16.6036 18.1357 16.4568 18.3631 16.2815C19.8556 15.168 20.7416 13.4244 20.7464 11.5813C20.7511 9.6719 19.9267 7.95199 18.4437 6.79591C17.7709 6.26999 17.0933 5.93833 16.1931 5.69195L15.743 5.56402L10.5927 5.54981C7.75466 5.54507 5.43776 5.52138 5.43776 5.50243C5.43776 5.47874 5.50409 5.40293 5.58463 5.32238C5.81206 5.10443 6.12951 4.55956 6.27165 4.14261C6.37589 3.8299 6.39958 3.67354 6.40431 3.24238C6.40431 2.94389 6.38062 2.60748 6.34272 2.46061C6.24796 2.06261 5.93999 1.45614 5.67466 1.13395L5.43302 0.849673H10.3606C13.3503 0.849673 15.4777 0.868625 15.7714 0.897053ZM26.6736 0.982338C27.119 1.16238 27.4933 1.44193 27.7539 1.7878C28.4599 2.73067 28.3699 3.98152 27.536 4.82015C26.9816 5.3745 26.3799 5.55928 25.2191 5.53085L24.6552 5.51664L24.5131 5.30343C23.8024 4.22316 22.7269 3.06234 21.7603 2.33742C21.0733 1.82571 20.5805 1.52247 19.7987 1.13869L19.2065 0.844935L22.8074 0.859149L26.4036 0.873363L26.6736 0.982338ZM11.5119 6.47846C11.0192 6.84803 10.6117 7.20338 10.3416 7.49714C8.97707 9.00384 8.4701 11.027 8.96759 12.998C9.49352 15.078 11.1471 16.7316 13.2792 17.3049L13.8478 17.4565L18.9791 17.4707C21.7982 17.4754 24.1056 17.4944 24.1056 17.5086C24.1056 17.5228 24.0109 17.646 23.8924 17.7739C23.6129 18.0867 23.3854 18.5036 23.2433 18.949C23.1154 19.3659 23.0964 20.1287 23.2007 20.5599C23.2907 20.9437 23.646 21.6354 23.8972 21.9245L24.1151 22.1756L18.8417 22.1566C13.0518 22.1377 13.3408 22.1519 12.1137 21.8439C9.60249 21.209 7.33771 19.5981 5.8547 17.3854C5.45197 16.779 4.88814 15.6418 4.66072 14.969C4.27694 13.8366 4.1111 12.7848 4.10637 11.5103C4.10163 10.3589 4.23903 9.41131 4.57069 8.37368C4.746 7.81933 5.07766 6.99491 5.28614 6.61586L5.40459 6.39318H8.51274C11.4551 6.39792 11.6162 6.40265 11.5119 6.47846ZM15.9988 6.55901C16.8991 6.77696 17.6951 7.23181 18.3773 7.90935C19.216 8.74798 19.6945 9.72402 19.8461 10.9227C20.0404 12.4768 19.5192 13.9646 18.3726 15.1159C17.9035 15.5897 17.534 15.8503 16.9322 16.1298C16.3968 16.381 16.1031 16.471 15.5298 16.5563C14.4732 16.7221 13.4782 16.5705 12.5401 16.1062C10.7633 15.2296 9.65461 13.4576 9.65461 11.496C9.65461 9.53923 10.8296 7.71035 12.6064 6.89067C13.0518 6.68694 13.6725 6.49741 14.0847 6.44056C14.6106 6.37422 15.435 6.42161 15.9988 6.55901ZM5.00186 17.6697C5.41406 18.2857 6.00632 19.0343 6.41379 19.4654C7.37087 20.4746 8.80176 21.498 9.98627 22.0145L10.3416 22.1708H6.86864C2.88395 22.1708 2.97871 22.1803 2.39593 21.7965C1.69471 21.3369 1.31566 20.6452 1.31566 19.816C1.31566 18.9395 1.84158 18.1246 2.65179 17.7408C3.07347 17.5418 3.36249 17.4944 4.22008 17.4849L4.86919 17.4802L5.00186 17.6697ZM27.0669 17.6318C27.4365 17.7503 27.735 17.9445 28.024 18.2525C28.512 18.7642 28.6731 19.219 28.6447 19.9677C28.6305 20.4178 28.6162 20.4746 28.4457 20.8252C28.1282 21.4696 27.5454 21.9434 26.8963 22.0998C25.7782 22.3604 24.7026 21.8392 24.2051 20.7968C24.0488 20.4699 24.0346 20.3988 24.0203 19.9345C23.9966 19.257 24.1293 18.8353 24.5084 18.3757C25.148 17.6129 26.1288 17.3238 27.0669 17.6318Z" fill="#666BDE"/>
</svg>
