<svg width="21" height="30" viewBox="0 0 21 30" fill="none" xmlns="http://www.w3.org/2000/svg">
<path d="M21 28.5L21 1.5C21 1.10218 20.842 0.720644 20.5607 0.43934C20.2794 0.158035 19.8978 0 19.5 0L13.5 0V1.3395C13.5 2.8335 12.4785 4.2195 11.004 4.4595C10.5734 4.53261 10.1321 4.51089 9.71082 4.39585C9.28953 4.2808 8.89841 4.07521 8.56477 3.79342C8.23113 3.51162 7.963 3.16041 7.7791 2.7643C7.5952 2.36819 7.49995 1.93672 7.5 1.5V0L1.5 0C1.10218 0 0.720643 0.158035 0.439339 0.43934C0.158034 0.720644 0 1.10218 0 1.5L0 28.5C0 28.8978 0.158034 29.2794 0.439339 29.5607C0.720643 29.842 1.10218 30 1.5 30L7.5 30V28.5C7.49995 28.0633 7.5952 27.6318 7.7791 27.2357C7.963 26.8396 8.23113 26.4884 8.56477 26.2066C8.89841 25.9248 9.28953 25.7192 9.71082 25.6042C10.1321 25.4891 10.5734 25.4674 11.004 25.5405C12.4785 25.7805 13.5 27.1665 13.5 28.6605L13.5 30L19.5 30C19.8978 30 20.2794 29.842 20.5607 29.5607C20.842 29.2794 21 28.8978 21 28.5ZM3 13.5V10.5H6V13.5H3ZM9 13.5V10.5H12V13.5H9ZM15 13.5V10.5H18V13.5H15Z" fill="white"/>
</svg>
